<?xml version="1.0" standalone="no"?>
<!DOCTYPE svg PUBLIC "-//W3C//DTD SVG 20010904//EN"
 "http://www.w3.org/TR/2001/REC-SVG-20010904/DTD/svg10.dtd">
<svg version="1.0" xmlns="http://www.w3.org/2000/svg"
 width="1600.000000pt" height="1600.000000pt" viewBox="0 0 1600.000000 1600.000000"
 preserveAspectRatio="xMidYMid meet">
<metadata>
Created by potrace 1.11, written by Peter Selinger 2001-2013
</metadata>
<g transform="translate(0.000000,1600.000000) scale(0.100000,-0.100000)"
fill="#000000" stroke="none">
<path d="M7001 14090 l-44 -5 110 -115 c115 -120 179 -164 230 -158 56 6 37
68 -65 211 l-56 78 -66 -3 c-36 -2 -85 -5 -109 -8z m19 -32 c0 -6 -6 -5 -15 2
-8 7 -15 14 -15 16 0 2 7 1 15 -2 8 -4 15 -11 15 -16z"/>
<path d="M6665 14075 c-5 -2 -47 -11 -92 -21 -45 -10 -79 -22 -77 -26 3 -5 14
-6 25 -3 11 4 19 2 19 -5 0 -6 -4 -8 -10 -5 -5 3 -10 3 -9 -2 2 -17 215 -197
254 -214 31 -14 49 -16 80 -9 123 28 68 164 -107 263 -44 26 -60 30 -83 22z"/>
<path d="M7455 14058 c10 -13 60 -64 109 -113 98 -97 146 -128 180 -115 37 14
24 59 -46 156 l-64 89 -99 3 -99 3 19 -23z"/>
<path d="M7871 14019 c80 -112 202 -212 254 -207 27 3 30 6 28 36 0 18 -19 62
-42 101 l-42 68 -72 12 c-40 6 -89 13 -110 15 l-37 5 21 -30z"/>
<path d="M6175 13946 c-55 -23 -113 -50 -130 -59 l-30 -16 33 6 c33 6 41 -4
20 -25 -18 -18 53 -86 130 -124 104 -51 237 -40 257 21 13 41 -55 140 -143
209 l-37 29 -100 -41z m-75 -117 c0 -4 -7 -6 -15 -3 -8 4 -15 10 -15 15 0 4 7
6 15 3 8 -4 15 -10 15 -15z"/>
<path d="M8331 13888 c17 -29 47 -70 67 -90 62 -65 102 -42 60 34 -23 42 -51
64 -120 93 l-38 15 31 -52z"/>
<path d="M7615 13673 c-263 -9 -682 -48 -905 -83 -545 -88 -906 -222 -1216
-453 -168 -125 -205 -185 -185 -300 21 -118 44 -116 208 14 229 182 463 297
758 374 217 57 745 126 1065 140 74 3 158 8 185 10 214 19 894 26 1009 12 52
-7 57 -6 46 8 -7 8 -23 15 -36 15 -46 0 -74 18 -74 47 -1 16 -7 53 -14 83 -10
43 -19 58 -42 72 -40 23 -176 45 -364 58 -140 10 -205 10 -435 3z m94 -22 c23
-1 24 -2 6 -21 -23 -25 -16 -96 16 -170 12 -28 20 -53 17 -55 -2 -3 -63 -7
-135 -11 l-130 -6 -12 59 c-16 78 -50 143 -90 170 -23 15 -29 24 -20 28 22 8
239 12 348 6z"/>
<path d="M8667 13534 c-3 -6 -8 -23 -11 -38 -3 -15 -14 -43 -25 -62 -12 -19
-21 -38 -21 -43 0 -6 57 -31 73 -31 9 0 8 140 -2 164 -4 11 -10 15 -14 10z"/>
<path d="M4473 13273 c-13 -2 -32 -16 -44 -31 -19 -25 -21 -35 -15 -117 3 -49
15 -218 26 -375 22 -324 58 -939 96 -1655 45 -852 45 -2568 -1 -2722 -27 -89
-18 -87 -308 -79 -741 20 -1500 103 -2112 231 -182 38 -221 41 -246 22 -36
-27 -39 -52 -39 -294 0 -499 49 -1127 136 -1763 38 -283 54 -358 85 -401 45
-63 27 -62 561 -24 532 38 1003 68 1378 87 306 16 1347 16 1865 0 554 -17
1165 -26 1207 -18 46 8 96 49 115 93 11 28 14 143 13 635 0 570 1 600 17 592
15 -6 302 -23 311 -18 7 4 11 59 6 77 -5 15 -13 17 -62 12 -118 -13 -275 -15
-288 -4 -7 6 -17 8 -23 5 -18 -11 -161 55 -181 83 -8 12 -20 21 -27 21 -7 0
-15 11 -19 25 -3 13 -12 29 -20 36 -8 6 -14 24 -14 39 0 15 -6 45 -14 67 -7
21 -12 55 -10 74 2 20 -4 60 -15 90 -10 31 -17 69 -15 85 2 16 -7 63 -20 104
-13 41 -24 85 -25 98 0 12 -1 32 -2 45 -1 26 -39 147 -52 164 -5 7 -25 11 -45
10 -21 -1 -42 1 -47 5 -6 4 -46 9 -90 13 -94 8 -110 10 -190 25 -33 6 -73 14
-89 16 -16 3 -40 10 -53 15 -13 5 -36 9 -51 9 -15 0 -36 7 -46 15 -11 8 -26
15 -34 15 -7 0 -20 6 -27 13 -30 26 -44 37 -50 37 -10 0 -55 44 -55 54 0 6 -8
16 -19 23 -10 6 -22 24 -25 39 -4 14 -15 34 -25 43 -28 24 -84 201 -70 218 6
7 17 13 24 13 7 0 16 7 19 15 3 9 19 21 36 27 19 6 38 24 49 46 17 33 17 39 3
81 -15 46 -29 64 -44 55 -4 -3 -8 -1 -8 5 0 5 6 11 13 14 7 3 2 9 -12 14 -39
16 -125 -12 -93 -30 4 -2 0 -2 -8 1 -8 3 -29 4 -46 3 -39 -2 -56 18 -82 96
l-20 62 24 45 c13 25 35 56 47 68 29 29 62 111 54 133 -4 8 -21 24 -39 35
l-33 20 38 0 c41 0 44 5 21 38 -21 30 -43 28 -93 -9 -75 -53 -136 -18 -145 84
-3 32 -2 57 3 57 6 0 12 9 16 19 3 11 26 42 51 68 25 26 52 60 59 74 13 24 10
68 -4 70 -24 3 -44 9 -49 15 -4 3 10 3 32 0 37 -7 38 -6 32 16 -3 13 -11 49
-17 80 -6 31 -19 64 -29 73 -16 15 -21 15 -47 2 -44 -23 -126 -119 -111 -129
7 -4 9 -8 3 -8 -30 0 -52 49 -55 125 -1 28 -3 61 -4 75 -4 32 19 78 54 110 15
14 32 35 39 47 13 25 15 57 3 49 -4 -2 -14 -1 -22 5 -11 6 -7 9 16 9 17 0 33
2 35 5 9 9 -10 146 -22 161 -26 32 -56 16 -100 -53 l-42 -68 -20 60 c-11 33
-24 63 -30 66 -5 4 -7 11 -3 17 3 5 0 27 -8 48 -12 35 -11 43 4 74 10 19 27
44 38 56 31 32 44 64 38 89 -5 19 -2 24 16 27 47 6 38 137 -13 202 l-22 28
-33 -62 c-18 -33 -44 -76 -59 -96 l-26 -34 22 -8 c12 -5 18 -11 13 -15 -13 -7
-68 39 -60 51 2 4 -2 28 -11 53 -8 24 -17 76 -19 114 -3 69 -2 72 32 107 35
38 44 71 22 84 -9 6 -5 10 12 14 33 8 43 53 37 160 -4 82 -25 150 -47 150 -10
0 -50 -51 -70 -89 -7 -13 -18 -56 -24 -95 l-12 -71 -23 75 c-30 97 -32 185 -7
262 15 48 17 64 8 79 -11 17 -10 18 12 9 20 -7 27 -5 40 14 32 50 56 144 56
223 0 110 -9 117 -60 50 -47 -63 -80 -141 -80 -191 0 -100 -42 -63 -56 49 -16
132 -8 198 35 282 l20 41 -40 43 c-23 24 -45 53 -49 65 -13 33 -4 166 16 231
21 69 21 72 28 99 4 21 97 197 160 305 l33 56 -81 7 c-44 3 -173 8 -286 11
-113 3 -243 7 -290 9 -47 2 -95 1 -107 -1z m703 -1744 c19 -22 19 -22 -3 -8
-13 8 -23 17 -23 21 0 12 6 9 26 -13z m160 -467 c-10 -2 -22 0 -28 6 -6 6 0 7
19 4 21 -5 23 -7 9 -10z m110 -472 c10 0 14 -3 11 -7 -9 -8 -87 17 -87 29 0 5
13 2 30 -7 16 -8 37 -15 46 -15z m59 -438 c-3 -3 -11 0 -18 7 -9 10 -8 11 6 5
10 -3 15 -9 12 -12z m84 -18 c2 -2 -3 -6 -12 -10 -9 -3 -24 1 -33 11 -15 15
-14 15 12 9 16 -4 31 -8 33 -10z m103 -426 c-9 -9 -15 -9 -24 0 -9 9 -7 12 12
12 19 0 21 -3 12 -12z"/>
<path d="M11340 13274 c-58 -2 -274 -11 -480 -21 -468 -22 -999 -22 -1484 0
-391 18 -576 21 -576 10 0 -3 8 -15 18 -26 13 -15 17 -36 15 -101 0 -44 -3
-88 -5 -97 -5 -23 -51 -79 -64 -79 -6 0 -20 -11 -32 -25 -23 -26 -29 -40 -12
-30 5 3 20 0 32 -7 13 -6 28 -13 33 -13 25 -3 64 -26 94 -55 67 -68 79 -91 85
-170 7 -85 -6 -133 -44 -168 -14 -12 -29 -27 -35 -33 -5 -6 -20 -21 -33 -34
l-23 -24 57 -18 c86 -27 136 -79 161 -168 11 -38 20 -86 19 -106 -1 -45 -56
-134 -96 -154 -44 -23 -51 -65 -10 -65 10 0 22 -5 25 -10 4 -6 12 -10 18 -8
13 2 94 -38 112 -56 17 -16 64 -162 60 -183 -2 -10 -6 -30 -9 -44 -3 -14 -15
-36 -27 -50 -12 -13 -28 -34 -36 -46 -8 -12 -27 -25 -43 -28 -16 -3 -31 -12
-33 -20 -6 -15 2 -55 12 -56 3 0 15 -3 26 -5 11 -3 36 -6 56 -7 45 -4 106 -41
115 -70 3 -12 12 -29 19 -37 7 -8 16 -42 20 -75 6 -59 5 -62 -31 -110 -48 -63
-60 -75 -73 -75 -6 0 -11 -4 -11 -10 0 -5 -6 -10 -14 -10 -19 0 -28 -28 -16
-50 7 -13 6 -20 -3 -23 -9 -4 -9 -6 0 -6 7 -1 10 -8 7 -16 -7 -17 -9 -16 71
-19 60 -3 130 -22 151 -41 18 -18 26 -49 30 -128 3 -58 0 -85 -12 -109 -17
-34 -62 -77 -80 -78 -7 0 -14 -7 -18 -15 -3 -8 -14 -15 -24 -15 -11 0 -25 -6
-31 -14 -15 -18 -7 -106 11 -117 7 -5 34 -6 60 -3 28 3 57 0 70 -7 27 -14 67
-59 68 -76 0 -6 4 -13 9 -15 5 -1 11 -30 13 -64 2 -51 -1 -67 -22 -97 -14 -20
-30 -37 -37 -37 -6 0 -18 -9 -25 -19 -8 -11 -26 -23 -41 -26 -33 -9 -38 -15
-42 -61 -2 -20 -5 -38 -8 -40 -6 -6 -20 156 -15 176 4 19 10 20 -397 -36 -181
-25 -345 -48 -364 -50 -19 -2 -37 -7 -40 -11 -3 -3 4 -4 15 -1 35 9 48 -5 33
-33 -19 -35 -19 -187 1 -199 10 -6 11 -13 5 -19 -13 -13 -239 -57 -267 -52 -3
0 0 22 8 48 19 64 18 109 -6 158 -34 70 -42 71 -251 36 -705 -120 -1403 -305
-1784 -473 -49 -22 -104 -44 -122 -49 -36 -11 -63 -43 -63 -73 0 -34 39 -101
69 -119 50 -29 113 -22 291 37 91 30 264 80 385 111 121 32 261 68 310 81 108
29 373 82 620 124 99 17 254 45 345 61 304 55 686 119 1090 182 l145 22 6 35
c4 19 7 27 8 18 0 -10 4 -19 9 -20 18 -3 69 -8 97 -8 48 -1 62 -9 78 -43 20
-46 12 -211 -14 -259 -5 -9 -9 -28 -9 -41 0 -14 -7 -30 -15 -37 -8 -7 -15 -21
-15 -31 0 -10 -6 -22 -14 -26 -7 -4 -19 -19 -26 -32 -15 -30 -19 -35 -64 -86
-19 -22 -37 -37 -40 -34 -3 3 19 66 49 140 31 75 55 150 55 170 0 72 -48 91
-82 33 -10 -18 -34 -87 -54 -155 -43 -153 -91 -245 -170 -326 -34 -35 -58 -63
-53 -63 4 0 11 5 14 10 3 6 11 10 17 10 7 0 6 -6 -2 -15 -7 -8 -17 -15 -22
-15 -6 0 -23 -11 -40 -25 -16 -14 -37 -25 -47 -25 -10 0 -27 -11 -40 -24 -12
-12 -40 -28 -61 -35 -22 -6 -40 -16 -40 -21 0 -6 -6 -10 -13 -10 -7 0 -21 -6
-31 -13 -17 -12 -17 -17 -5 -53 7 -21 14 -51 16 -66 1 -16 3 -36 4 -45 0 -10
7 -40 15 -68 7 -27 15 -77 18 -110 2 -33 16 -91 29 -130 13 -38 23 -86 22
-105 -2 -19 8 -69 21 -110 13 -41 22 -86 19 -100 -3 -14 -7 -35 -9 -48 -3 -12
-13 -33 -23 -46 -29 -36 -136 -122 -163 -131 -14 -4 -32 -16 -40 -25 -8 -9
-33 -23 -55 -30 -38 -12 -84 -37 -95 -51 -3 -3 -30 -14 -60 -24 -67 -22 -80
-38 -74 -90 2 -22 7 -76 9 -120 3 -44 8 -105 10 -135 3 -30 7 -84 10 -120 3
-36 7 -87 10 -115 2 -27 4 -70 5 -95 1 -24 6 -51 11 -60 7 -10 8 16 5 80 -17
289 -19 420 -6 464 17 61 59 98 195 170 61 32 122 67 136 77 l26 18 7 -56 c4
-31 6 -389 6 -795 l-1 -739 25 -44 c47 -79 52 -79 529 -71 227 3 579 11 782
18 513 15 1543 16 1845 0 457 -23 1454 -88 1742 -113 151 -13 183 -3 222 65
29 49 37 87 75 366 88 635 133 1202 135 1713 l1 329 -28 24 c-15 13 -40 24
-54 24 -15 0 -126 -20 -247 -45 -607 -123 -1347 -203 -2061 -221 l-260 -7 -22
24 c-11 13 -26 42 -33 64 -20 73 -31 520 -31 1295 0 713 2 806 31 1370 37 741
84 1535 110 1891 13 172 17 275 11 291 -19 51 -49 57 -241 52z m-2075 -4033
c-3 -6 -11 -11 -17 -11 -6 0 -6 6 2 15 14 17 26 13 15 -4z m-77 -63 c-55 -51
-80 -70 -84 -65 -5 4 104 97 114 97 2 0 -11 -15 -30 -32z"/>
<path d="M7609 13206 c-2 -2 -53 -6 -114 -10 -119 -7 -417 -34 -450 -41 -11
-2 -47 -7 -80 -10 -91 -9 -334 -52 -480 -85 -329 -73 -614 -185 -812 -317 -85
-57 -189 -150 -179 -160 3 -3 27 15 53 40 68 65 144 118 264 181 96 51 259
120 266 113 1 -2 -48 -27 -109 -57 -186 -88 -283 -151 -485 -313 -66 -53 -117
-102 -124 -119 -16 -40 -5 -175 17 -199 21 -23 36 -16 126 62 208 179 536 330
942 434 296 76 412 89 1221 145 497 34 648 42 807 44 116 1 174 4 168 11 -7 9
-26 114 -37 208 -3 24 -12 41 -25 48 -21 11 -360 33 -388 25 -8 -3 -85 -8
-170 -11 -85 -4 -159 -11 -165 -17 -7 -6 -3 -9 10 -6 15 2 19 -2 16 -17 -2
-11 -4 -73 -4 -138 0 -137 12 -125 -134 -130 -83 -2 -93 -1 -93 15 0 33 -29
129 -51 167 -11 21 -38 48 -58 59 l-36 21 25 10 c21 8 17 9 -20 5 -25 -2 -157
-16 -295 -29 -137 -14 -308 -34 -378 -44 -70 -9 -130 -15 -132 -11 -9 14 303
61 565 85 36 4 81 8 100 10 19 2 80 7 135 11 55 3 104 10 110 15 8 8 3 13 -6
5z"/>
<path d="M7635 13200 c-8 -13 5 -13 25 0 13 8 13 10 -2 10 -9 0 -20 -4 -23
-10z"/>
<path d="M7688 13203 c7 -3 16 -2 19 1 4 3 -2 6 -13 5 -11 0 -14 -3 -6 -6z"/>
<path d="M7770 13180 c-9 -6 -10 -10 -3 -10 6 0 15 5 18 10 8 12 4 12 -15 0z"/>
<path d="M7810 13180 c-8 -5 -10 -10 -5 -10 6 0 17 5 25 10 8 5 11 10 5 10 -5
0 -17 -5 -25 -10z"/>
<path d="M7568 13163 c7 -3 16 -2 19 1 4 3 -2 6 -13 5 -11 0 -14 -3 -6 -6z"/>
<path d="M5115 12816 c-45 -78 -65 -141 -65 -211 0 -64 17 -126 39 -139 14 -9
35 35 57 114 19 71 23 255 6 272 -7 7 -20 -6 -37 -36z"/>
<path d="M7870 12690 c-297 -18 -343 -21 -490 -36 -859 -83 -1494 -278 -1800
-552 -25 -22 -42 -43 -38 -47 4 -4 27 10 51 31 61 54 184 126 302 178 152 67
163 64 30 -7 -149 -79 -410 -252 -452 -300 -53 -61 -57 -194 -8 -243 33 -32
50 -30 120 16 127 84 518 273 690 333 289 100 893 219 1339 262 83 8 239 24
346 34 296 30 529 43 693 39 l148 -3 -5 25 c-3 14 -10 54 -16 90 -21 124 -38
167 -68 175 -38 10 -690 14 -842 5z m124 -47 c-10 -31 -12 -142 -4 -213 l5
-45 -50 -6 c-28 -4 -75 -9 -107 -12 l-56 -5 -7 36 c-19 101 -64 185 -115 215
-16 10 -30 22 -30 26 0 4 26 9 58 10 31 2 89 6 127 10 39 5 96 9 129 10 l58 1
-8 -27z"/>
<path d="M8310 12169 c-1087 -39 -1881 -183 -2368 -428 -198 -100 -403 -269
-417 -345 -15 -76 9 -153 57 -189 27 -20 28 -20 47 -3 34 31 221 144 331 200
249 127 379 169 735 235 276 52 759 122 1035 151 58 6 139 15 180 20 142 18
166 20 430 45 146 13 332 27 413 31 136 7 177 16 148 33 -6 4 -13 27 -16 51
-5 48 -27 183 -30 188 -5 7 -856 -45 -864 -54 -2 -2 24 -4 58 -4 l63 0 -8 -32
c-8 -39 -8 -159 1 -187 5 -17 0 -21 -37 -26 -24 -3 -77 -7 -118 -8 l-74 -2 -8
45 c-11 63 -56 149 -84 162 -13 6 -24 16 -24 21 0 10 -138 5 -280 -9 -36 -4
-63 -4 -60 -1 19 20 579 74 970 93 74 3 139 10 145 15 6 6 6 8 0 7 -6 0 -107
-5 -225 -9z m-1601 -233 c-2 -2 -84 -27 -182 -55 -259 -75 -459 -150 -696
-262 -68 -33 -126 -57 -128 -55 -7 7 114 76 229 130 62 29 172 74 243 99 213
76 560 168 534 143z"/>
<path d="M8560 12170 c-9 -6 -10 -10 -3 -10 6 0 15 5 18 10 8 12 4 12 -15 0z"/>
<path d="M8860 11655 c-47 -10 -269 -25 -425 -30 -616 -19 -1294 -98 -1720
-200 -429 -102 -717 -215 -907 -355 -88 -65 -88 -82 -1 -23 83 55 187 108 313
158 105 42 242 87 247 81 2 -2 -31 -18 -74 -36 -200 -82 -333 -149 -512 -259
-98 -59 -118 -76 -137 -113 -29 -57 -1 -178 45 -193 33 -10 108 20 259 104
375 208 803 339 1292 396 74 8 171 20 215 25 184 22 344 40 405 45 114 10 160
17 165 25 7 12 -14 107 -35 155 -18 41 -49 79 -72 88 -10 4 -10 8 2 16 18 13
1 12 -390 -35 -157 -19 -310 -36 -340 -39 -51 -4 -52 -4 -15 5 50 12 347 57
463 70 336 39 552 58 552 48 0 -5 10 -4 21 3 15 8 19 8 15 0 -4 -6 0 -11 8
-11 20 0 20 -4 0 -41 -22 -43 -20 -94 6 -164 12 -33 25 -63 29 -66 3 -4 40 -3
81 2 160 18 567 59 613 61 27 1 50 5 53 10 5 7 -43 255 -53 271 -4 7 -71 8
-103 2z"/>
<path d="M8925 11135 c-169 -21 -567 -76 -595 -83 -24 -5 -25 -6 -2 -9 26 -5
26 -1 6 -70 -17 -60 -10 -109 23 -159 14 -22 13 -24 -19 -39 -18 -8 -23 -12
-10 -9 26 6 7 4 362 48 151 19 308 38 349 41 l74 7 -7 62 c-19 185 -30 228
-60 225 -6 -1 -60 -7 -121 -14z"/>
<path d="M8549 11136 c-2 -2 -44 -6 -94 -10 -699 -47 -1346 -152 -1780 -288
-284 -88 -466 -170 -650 -293 -60 -40 -133 -84 -161 -98 -57 -29 -103 -77
-105 -110 -4 -79 22 -154 55 -163 38 -9 107 13 249 81 391 187 897 314 1722
434 116 17 255 38 310 46 55 8 122 18 150 21 27 3 52 8 55 11 5 6 -112 -3
-167 -13 -33 -6 -33 -6 -33 33 0 62 -26 136 -60 168 l-30 29 22 13 c20 12 16
13 -37 7 -33 -3 -139 -16 -235 -29 -96 -13 -236 -31 -310 -40 -390 -46 -767
-144 -1168 -304 -84 -34 -155 -61 -159 -61 -19 0 42 32 149 78 491 214 1313
388 2208 468 36 3 69 10 75 15 8 8 3 13 -6 5z"/>
<path d="M8975 10584 c-174 -28 -537 -84 -547 -84 -14 0 -9 -154 5 -180 22
-43 48 -68 66 -64 18 4 435 59 571 75 47 6 96 11 110 13 23 3 25 7 23 47 -1
24 -8 83 -15 132 -14 103 8 96 -213 61z"/>
<path d="M8375 10544 c-851 -78 -1584 -236 -2182 -469 -111 -43 -197 -94 -182
-109 3 -3 54 16 115 43 114 51 414 155 474 165 19 4 -12 -11 -70 -33 -165 -61
-428 -166 -503 -200 -37 -17 -72 -31 -77 -31 -19 0 -50 -40 -50 -64 0 -22 50
-159 62 -171 3 -3 50 13 104 35 364 151 566 216 886 284 295 63 987 185 1153
202 67 7 68 8 71 32 19 135 15 161 -35 206 -20 19 -26 18 -315 -23 -275 -39
-444 -58 -421 -46 33 16 760 130 1085 170 74 9 160 20 190 25 l55 8 -60 -1
c-33 0 -168 -11 -300 -23z"/>
<path d="M9003 9590 c-32 -13 -57 -58 -89 -164 -16 -50 -49 -153 -75 -229 -25
-76 -42 -134 -36 -128 14 14 40 -15 33 -37 -9 -26 90 83 133 147 115 169 178
381 122 411 -23 12 -58 12 -88 0z"/>
<path d="M8670 9518 c-28 -20 -40 -43 -84 -168 -29 -80 -71 -189 -94 -242 -45
-104 -47 -112 -33 -104 5 4 11 1 13 -5 2 -6 15 -12 30 -12 23 -2 25 -5 16 -22
-21 -40 95 82 137 146 88 132 169 366 143 413 -14 25 -88 21 -128 -6z"/>
<path d="M8238 9454 c-27 -8 -54 -24 -62 -37 -7 -12 -17 -58 -20 -102 -16
-182 -48 -277 -147 -436 -68 -107 -101 -170 -65 -121 10 12 22 22 28 22 6 0 5
-7 -3 -17 -13 -14 -10 -14 20 1 38 20 151 131 213 209 75 96 131 225 154 359
15 90 15 90 -7 114 -26 27 -44 29 -111 8z"/>
<path d="M7792 9360 c-68 -16 -94 -59 -112 -188 -13 -97 -58 -211 -125 -317
-30 -48 -52 -92 -48 -98 3 -5 1 -7 -5 -3 -6 3 -13 2 -16 -3 -4 -5 5 -8 20 -6
20 2 24 -1 19 -14 -5 -13 -4 -14 6 -3 15 14 33 16 24 2 -3 -6 4 -10 17 -10 18
0 20 -2 8 -10 -13 -9 -13 -10 0 -10 22 0 98 53 154 107 58 57 105 127 140 210
28 67 32 92 41 230 5 75 3 94 -10 107 -17 17 -58 19 -113 6z"/>
<path d="M7273 9280 c-44 -26 -53 -47 -69 -161 -7 -55 -23 -118 -35 -141 -11
-24 -65 -88 -119 -143 -112 -115 -125 -139 -83 -156 72 -29 242 43 348 147
101 98 144 217 130 357 -6 54 -13 76 -31 94 -30 29 -95 31 -141 3z"/>
<path d="M8624 8859 c-64 -67 -173 -107 -611 -225 -186 -50 -380 -89 -589
-118 -194 -27 -267 -33 -474 -42 -74 -3 -136 -7 -137 -8 -2 -1 8 -33 20 -71
l24 -69 68 -28 c41 -17 72 -25 78 -19 5 5 25 7 45 4 35 -5 108 19 237 77 22
10 51 21 65 25 14 4 39 13 55 20 71 31 315 105 368 111 16 2 34 7 40 11 6 3
22 7 36 9 14 1 57 5 94 8 38 4 95 10 128 15 33 4 120 9 194 9 187 2 264 15
349 58 39 20 74 39 77 42 4 4 1 48 -7 97 -7 50 -13 98 -13 108 -1 25 -13 21
-47 -14z"/>
<path d="M6760 8465 c0 -6 7 -30 15 -55 l15 -45 -6 45 c-5 39 -24 82 -24 55z"/>
<path d="M8085 8370 c-16 -4 -104 -24 -195 -44 -115 -27 -172 -44 -187 -59
-31 -28 -29 -47 5 -47 34 0 168 27 203 41 14 5 35 11 47 12 12 1 22 5 22 9 0
4 6 5 13 2 7 -2 33 3 57 11 25 9 79 18 120 21 64 5 80 2 107 -15 51 -32 61
-57 68 -161 21 -343 26 -390 37 -390 7 0 8 21 5 58 -4 31 -14 154 -23 272 -14
179 -20 220 -36 242 -33 47 -154 71 -243 48z"/>
<path d="M6811 8244 c0 -11 3 -14 6 -6 3 7 2 16 -1 19 -3 4 -6 -2 -5 -13z"/>
<path d="M6821 8184 c0 -11 3 -14 6 -6 3 7 2 16 -1 19 -3 4 -6 -2 -5 -13z"/>
<path d="M7721 8154 c0 -11 3 -14 6 -6 3 7 2 16 -1 19 -3 4 -6 -2 -5 -13z"/>
<path d="M6831 8150 c0 -8 4 -22 9 -30 12 -18 12 -2 0 25 -6 13 -9 15 -9 5z"/>
<path d="M7761 7794 c0 -11 3 -14 6 -6 3 7 2 16 -1 19 -3 4 -6 -2 -5 -13z"/>
<path d="M10058 4950 c-124 -22 -256 -78 -349 -146 -67 -49 -189 -181 -228
-247 -154 -261 -149 -616 14 -861 87 -131 211 -239 350 -306 121 -58 198 -74
350 -74 144 0 197 10 348 70 l88 35 134 -20 c74 -12 150 -21 168 -21 60 0 61
5 44 247 -13 183 -13 246 -3 388 8 103 9 177 4 188 -9 17 -22 18 -216 12 -140
-5 -239 -3 -306 5 -65 8 -102 8 -108 2 -9 -9 -3 -114 18 -288 l6 -51 -52 -13
c-178 -43 -343 82 -344 260 0 81 38 158 102 207 94 71 205 70 349 -3 72 -37
97 -45 120 -40 31 8 194 168 262 258 23 30 41 66 41 80 0 90 -197 229 -416
293 -98 29 -287 42 -376 25z"/>
<path d="M4490 4935 c-52 -7 -98 -14 -101 -14 -4 -1 -7 -61 -7 -133 0 -101 -5
-152 -21 -213 -31 -121 -91 -234 -165 -310 l-62 -66 -17 -410 c-12 -268 -14
-415 -8 -423 12 -14 568 -16 589 -2 14 9 14 50 -4 394 -9 178 6 161 142 -155
90 -207 134 -293 153 -293 12 0 68 109 140 272 76 173 127 274 142 284 9 5 11
-51 5 -244 -5 -199 -4 -252 6 -259 22 -13 577 -11 589 3 7 8 5 135 -5 381 -13
321 -13 418 -1 761 7 217 12 399 9 406 -3 9 -74 12 -277 11 l-272 0 -93 -155
c-51 -85 -122 -212 -157 -282 -35 -69 -68 -129 -74 -132 -13 -8 -17 -1 -131
204 -57 102 -131 230 -165 285 -71 115 -61 111 -215 90z"/>
<path d="M13750 4933 c-160 -20 -660 -22 -814 -4 -59 6 -111 10 -114 7 -3 -3
-9 -50 -14 -103 -5 -54 -19 -163 -32 -243 -13 -80 -20 -149 -16 -153 4 -5 70
-4 147 2 77 6 145 11 153 11 11 0 12 -65 5 -397 -5 -219 -9 -465 -10 -548 l0
-150 313 -1 313 0 5 22 c3 12 0 150 -6 305 -12 284 -17 765 -8 775 3 2 69 0
148 -6 116 -9 145 -9 151 2 5 7 6 20 2 28 -3 8 -7 116 -9 240 l-2 225 -43 1
c-24 1 -100 -5 -169 -13z"/>
<path d="M2105 4903 c-2 -7 0 -131 5 -275 6 -145 13 -488 16 -763 3 -275 8
-502 11 -505 2 -3 188 -5 411 -5 241 -1 466 -6 551 -13 79 -7 148 -9 152 -5
27 27 64 522 41 537 -6 3 -32 2 -59 -4 -91 -21 -248 -40 -384 -46 l-136 -7 -6
33 c-12 57 -7 466 8 735 8 143 15 276 15 295 l0 35 -310 0 c-238 0 -311 -3
-315 -12z"/>
<path d="M6015 4911 c-1 -3 1 -78 5 -166 21 -406 22 -641 5 -1003 -13 -275
-14 -367 -5 -375 8 -9 137 -12 468 -12 321 0 489 -4 566 -14 91 -11 110 -11
122 0 7 8 22 70 34 139 11 69 27 157 36 196 8 39 14 87 12 105 l-3 34 -220 -3
c-238 -3 -368 7 -392 31 -21 21 -10 61 22 75 32 15 160 15 334 1 100 -8 136
-7 141 1 4 6 10 59 13 118 4 59 13 152 22 207 19 129 20 129 -105 115 -128
-13 -311 -13 -366 1 -48 12 -79 45 -68 72 15 39 109 45 402 26 110 -8 176 -9
183 -2 6 6 2 81 -11 209 -16 157 -24 204 -38 224 l-19 25 -567 1 c-312 0 -569
-2 -571 -5z"/>
<path d="M7334 4908 c-3 -4 0 -146 5 -315 6 -169 13 -514 15 -767 3 -252 8
-461 12 -465 3 -3 184 -6 402 -6 239 0 458 -6 551 -14 102 -8 157 -9 163 -3
16 16 37 193 44 376 l7 169 -39 -7 c-21 -3 -75 -12 -119 -20 -98 -18 -347 -39
-395 -34 -30 2 -36 8 -41 33 -12 57 -9 420 6 690 8 149 16 293 17 320 l3 50
-313 0 c-173 1 -316 -3 -318 -7z"/>
<path d="M8624 4908 c-3 -4 0 -115 6 -245 13 -307 13 -623 -1 -990 -8 -206 -8
-297 -1 -306 9 -10 82 -13 319 -12 l308 0 -1 205 c-2 307 -2 1013 0 1195 l1
160 -313 1 c-172 0 -315 -3 -318 -8z"/>
<path d="M11094 4908 c-3 -4 0 -128 6 -275 13 -347 13 -664 -1 -991 -8 -182
-8 -266 -1 -275 8 -10 83 -12 314 -12 l303 0 -3 260 c-2 163 1 266 7 275 8 12
39 15 171 15 205 0 194 11 183 -180 -4 -77 -8 -192 -8 -255 l0 -115 310 0 310
0 -1 170 c-2 207 -2 986 0 1220 l1 170 -303 0 c-167 0 -306 -3 -309 -8 -3 -5
1 -110 8 -233 11 -208 11 -226 -5 -242 -14 -15 -41 -17 -192 -17 -199 0 -195
-2 -188 79 2 28 11 131 20 229 8 99 12 182 9 185 -9 10 -625 9 -631 0z"/>
<path d="M3920 4098 c-42 -17 -171 -37 -240 -37 -59 0 -172 16 -243 34 l-27 7
2 -373 3 -374 265 0 265 0 0 377 c0 208 0 378 0 377 0 0 -11 -5 -25 -11z"/>
<path d="M7804 2957 c-190 -49 -219 -198 -54 -282 25 -12 94 -37 154 -54 60
-18 131 -41 158 -53 84 -36 100 -109 36 -163 -40 -34 -67 -40 -169 -40 -79 0
-92 4 -159 37 -72 35 -74 36 -107 20 -18 -9 -33 -20 -33 -24 0 -15 121 -67
179 -78 171 -32 372 16 416 100 19 37 19 103 0 139 -21 42 -71 67 -230 115
-216 65 -275 107 -243 174 22 46 80 67 183 67 78 0 98 -4 151 -28 61 -28 63
-28 89 -11 25 17 26 19 9 31 -10 7 -43 23 -73 34 -70 27 -231 35 -307 16z"/>
<path d="M9418 2955 c-174 -44 -278 -160 -278 -311 0 -90 21 -151 72 -209 73
-83 180 -125 320 -125 279 0 462 184 404 409 -40 158 -159 239 -361 247 -66 2
-119 -1 -157 -11z m263 -58 c123 -51 186 -199 145 -341 -21 -71 -70 -127 -144
-163 -49 -24 -69 -28 -142 -28 -96 0 -150 19 -212 74 -59 51 -83 112 -82 206
0 89 14 126 68 183 34 37 70 58 131 79 50 16 187 11 236 -10z"/>
<path d="M11350 2955 c-74 -21 -130 -56 -178 -110 -105 -119 -96 -322 18 -435
71 -72 137 -94 280 -94 130 -1 190 14 261 66 l42 30 -32 14 c-30 13 -36 12
-60 -5 -56 -40 -113 -56 -201 -56 -76 0 -91 3 -138 30 -92 50 -137 137 -136
260 0 94 20 141 83 198 79 72 235 87 342 34 46 -22 49 -23 80 -6 l33 17 -34
21 c-54 33 -96 42 -205 47 -70 3 -116 -1 -155 -11z"/>
<path d="M12744 2957 c-190 -49 -219 -198 -54 -282 25 -12 94 -37 154 -54 60
-18 131 -41 158 -53 84 -36 100 -109 36 -163 -40 -34 -67 -40 -169 -40 -79 0
-92 4 -159 37 -72 35 -74 36 -107 20 -18 -9 -33 -20 -33 -24 0 -15 121 -67
179 -78 171 -32 372 16 416 100 19 37 19 103 0 139 -21 42 -71 67 -230 115
-216 65 -275 107 -243 174 22 46 80 67 183 67 78 0 98 -4 151 -28 61 -28 63
-28 89 -11 25 17 26 19 9 31 -10 7 -43 23 -73 34 -70 27 -231 35 -307 16z"/>
<path d="M2150 2640 l0 -320 50 0 50 0 0 320 0 320 -50 0 -50 0 0 -320z"/>
<path d="M2400 2640 l0 -320 50 0 50 0 2 259 3 258 225 -258 225 -258 48 -1
47 0 0 320 0 320 -50 0 -50 0 -2 -260 -3 -259 -223 259 -224 260 -49 0 -49 0
0 -320z"/>
<path d="M3140 2935 l0 -25 140 0 140 0 0 -295 0 -295 50 0 50 0 0 295 0 295
145 0 145 0 0 25 0 25 -335 0 -335 0 0 -25z"/>
<path d="M3900 2640 l0 -320 255 0 255 0 0 25 0 25 -205 0 -205 0 0 130 0 130
155 0 155 0 0 25 0 25 -155 0 -155 0 0 115 0 115 195 0 195 0 0 25 0 25 -245
0 -245 0 0 -320z"/>
<path d="M4520 2641 l0 -321 50 0 50 0 0 135 0 135 78 0 77 0 115 -134 115
-135 58 0 c31 -1 57 1 57 4 0 3 -54 65 -120 138 -66 73 -120 135 -120 139 0 3
13 9 29 13 17 3 48 20 71 36 118 85 107 208 -25 274 -59 30 -62 30 -247 34
l-188 3 0 -321z m321 258 c140 -30 160 -168 33 -229 -37 -18 -70 -24 -151 -28
l-103 -5 0 137 0 136 85 0 c46 0 107 -5 136 -11z"/>
<path d="M5210 2640 l0 -320 50 0 50 0 2 259 3 258 225 -258 225 -258 48 -1
47 0 0 320 0 320 -50 0 -50 0 -2 -260 -3 -259 -223 259 -224 260 -49 0 -49 0
0 -320z"/>
<path d="M6020 2640 l0 -320 255 0 255 0 0 25 0 25 -205 0 -205 0 0 130 0 130
155 0 155 0 0 25 0 25 -155 0 -155 0 0 115 0 115 195 0 195 0 0 25 0 25 -245
0 -245 0 0 -320z"/>
<path d="M6580 2935 l0 -25 140 0 140 0 0 -295 0 -295 50 0 50 0 0 295 0 295
145 0 145 0 0 25 0 25 -335 0 -335 0 0 -25z"/>
<path d="M8350 2640 l0 -320 50 0 50 0 0 150 0 150 220 0 220 0 0 -150 0 -150
50 0 50 0 0 320 0 320 -50 0 -50 0 0 -145 0 -145 -220 0 -220 0 0 145 0 145
-50 0 -50 0 0 -320z"/>
<path d="M10069 2823 c27 -76 77 -220 112 -321 l63 -183 49 3 50 3 90 253 c57
161 93 248 98 240 5 -7 45 -122 90 -255 l82 -243 52 0 52 0 107 313 c58 172
106 316 106 321 0 4 -23 6 -52 4 l-51 -3 -77 -245 c-42 -135 -78 -251 -81
-259 -3 -8 -47 104 -99 248 l-93 262 -41 -3 -40 -3 -53 -145 c-29 -80 -72
-197 -95 -260 l-42 -114 -22 69 c-13 39 -50 157 -84 263 l-61 192 -54 0 -54 0
48 -137z"/>
<path d="M11976 2644 c-86 -174 -156 -318 -156 -320 0 -2 22 -4 49 -4 l49 0
48 110 49 110 155 0 155 0 49 -110 48 -110 54 0 c30 0 54 2 54 4 0 2 -67 144
-150 317 l-149 314 -50 3 -49 3 -156 -317z m264 87 c33 -73 60 -134 60 -137 0
-2 -58 -4 -130 -4 -71 0 -130 2 -130 4 0 12 131 278 135 274 2 -2 32 -64 65
-137z"/>
<path d="M13300 2640 l0 -320 255 0 255 0 0 25 0 25 -205 0 -205 0 0 130 0
130 155 0 155 0 0 25 0 25 -155 0 -155 0 0 115 0 115 195 0 195 0 0 25 0 25
-245 0 -245 0 0 -320z"/>
</g>
</svg>
